<svg xmlns="http://www.w3.org/2000/svg" viewBox="0 0 274 274"><defs><style>.cls-1{fill:#00dbdc;}.cls-2{fill:#d42000;}.cls-3{fill:#f8ff81;}.cls-4{fill:#f8e134;}.cls-5{fill:#976b00;}.cls-6{fill:#00b033;}.cls-7{fill:#54ffff;}.cls-8{fill:#fff;}</style></defs><title>Eszköz 7</title><g id="Réteg_2" data-name="Réteg 2"><g id="Layer_1" data-name="Layer 1"><path class="cls-1" d="M274,137A137,137,0,1,1,137,0,137,137,0,0,1,274,137Z"/><path class="cls-2" d="M94,22.75a4.63,4.63,0,0,1,2.49.79,4.58,4.58,0,0,1,.71,7,7.58,7.58,0,0,1-2.61,1.7l-2.1.86,1.29,3.14-3.4,1.39-4.92-12,5.49-2.26A7.52,7.52,0,0,1,94,22.75Zm.68,5.8a1.73,1.73,0,0,0,0-1.51A1.8,1.8,0,0,0,93.56,26a2.54,2.54,0,0,0-1.77.19l-1.89.77,1.44,3.52,1.89-.77A2.6,2.6,0,0,0,94.63,28.55Z"/><path class="cls-2" d="M99.17,20.35l3.51-1.08,3.82,12.41L103,32.76Z"/><path class="cls-2" d="M106.33,18.2l3.58-.79,2.17,9.84,6-1.33.62,2.85-9.64,2.11Z"/><path class="cls-2" d="M118.57,15.77l3.64-.49L124,28.15l-3.64.49Z"/><path class="cls-2" d="M135.07,15a4.54,4.54,0,0,1,2.07,1.58,4.48,4.48,0,0,1,.82,2.52,4.35,4.35,0,0,1-2.52,4.31,7.36,7.36,0,0,1-3,.72l-2.26.1.15,3.39-3.67.16-.56-13,5.93-.26A7.44,7.44,0,0,1,135.07,15Zm-1.33,5.68a1.72,1.72,0,0,0,.51-1.42,1.78,1.78,0,0,0-.63-1.39,2.61,2.61,0,0,0-1.73-.42l-2,.09.17,3.8,2-.09A2.52,2.52,0,0,0,133.74,20.64Z"/><path class="cls-2" d="M140.77,14.45l3.67.17-.58,13-3.67-.17Z"/><path class="cls-2" d="M160.63,16.53l-1.84,12.85-3-.43-4.7-7.66-1,6.85-3.56-.51,1.84-12.86,3,.43,4.7,7.67,1-6.85Z"/><path class="cls-2" d="M170.35,29.88l-5.29-1.5-1.67,2.14-3.6-1,9.07-10.92,3.47,1,2,14.06-3.67-1.05Zm-.3-2.9-.47-4.46-2.74,3.54Z"/><path class="cls-2" d="M176.65,34.6a7.81,7.81,0,0,1-1.82-1.9l2.17-2a7.37,7.37,0,0,0,1.5,1.64,7.6,7.6,0,0,0,1.95,1.21c1.3.55,2.08.5,2.36-.15a.89.89,0,0,0-.24-1A10.68,10.68,0,0,0,181,31.1a18.91,18.91,0,0,1-2-1.58,4.07,4.07,0,0,1-1.1-1.72,3.12,3.12,0,0,1,.18-2.26,3.73,3.73,0,0,1,1.44-1.72,4.31,4.31,0,0,1,2.37-.64,8,8,0,0,1,3.13.71,10.93,10.93,0,0,1,2.21,1.25,7.53,7.53,0,0,1,1.69,1.63l-2.1,2.07a7.52,7.52,0,0,0-2.93-2.32,2.93,2.93,0,0,0-1.59-.32,1,1,0,0,0-.79.58.82.82,0,0,0,.24.95A11.35,11.35,0,0,0,183.31,29a18.16,18.16,0,0,1,2,1.58,4.17,4.17,0,0,1,1.1,1.71,3,3,0,0,1-.17,2.25,3.64,3.64,0,0,1-1.42,1.7,4.44,4.44,0,0,1-2.38.64,7.92,7.92,0,0,1-3.13-.71A12.14,12.14,0,0,1,176.65,34.6Z"/><path class="cls-2" d="M43.15,194.13l2,3.1-11,7-2-3.1Z"/><path class="cls-2" d="M37.14,208.37a7.26,7.26,0,0,1-.62-2.55l2.88-.67a8.1,8.1,0,0,0,.48,2.17,7.66,7.66,0,0,0,1.09,2c.85,1.13,1.55,1.48,2.11,1a.87.87,0,0,0,.3-1,11.1,11.1,0,0,0-.72-1.89,17.71,17.71,0,0,1-.93-2.36,4,4,0,0,1-.1-2,3.1,3.1,0,0,1,1.29-1.86,3.71,3.71,0,0,1,2.1-.78,4.3,4.3,0,0,1,2.38.64,8,8,0,0,1,2.35,2.18A10.5,10.5,0,0,1,51,205.49a7.54,7.54,0,0,1,.65,2.26l-2.86.74A7.57,7.57,0,0,0,47.46,205a3,3,0,0,0-1.22-1.07,1,1,0,0,0-1,.1.86.86,0,0,0-.26,1,11,11,0,0,0,.72,1.85,17.38,17.38,0,0,1,1,2.37,4.26,4.26,0,0,1,.1,2,3.14,3.14,0,0,1-1.28,1.86,3.7,3.7,0,0,1-2.08.76,4.42,4.42,0,0,1-2.38-.65,7.73,7.73,0,0,1-2.35-2.17A11.78,11.78,0,0,1,37.14,208.37Z"/><path class="cls-2" d="M53.76,208.8l2.51,2.68-7.36,6.88,4.23,4.53-2.12,2-6.74-7.21Z"/><path class="cls-2" d="M61.39,230.61l-4.19-3.55-2.41,1.27-2.86-2.42,12.76-6.21L67.45,222l-4,13.63-2.91-2.47Zm.93-2.76,1.41-4.25-4,2.09Z"/><path class="cls-2" d="M82.94,232.84l-7,10.92-2.54-1.63-1.09-8.92L68.55,239l-3-1.94,7-10.93,2.55,1.63,1.08,8.92,3.74-5.82Z"/><path class="cls-2" d="M85,234l5.57,2.59a8.59,8.59,0,0,1,3.09,2.32A6.08,6.08,0,0,1,95,242a7,7,0,0,1-2.9,6.23,6,6,0,0,1-3.28,1,8.54,8.54,0,0,1-3.76-.87l-5.57-2.59Zm1.19,11.65a3.75,3.75,0,0,0,2.83.27,3.9,3.9,0,0,0,2.21-4.74,3.79,3.79,0,0,0-2-2l-2.1-1-3,6.46Z"/><path class="cls-2" d="M115.88,245l-3.19,12.59-3.56-.91,1.24-4.91-4.85-1.23-1.25,4.91-3.56-.9L103.9,242l3.56.9-1.2,4.73,4.86,1.24,1.2-4.73Z"/><path class="cls-2" d="M119.6,258a6.51,6.51,0,0,1-2.84-6.23,6.51,6.51,0,0,1,4.15-5.46,8.36,8.36,0,0,1,7.36.82,6.61,6.61,0,0,1,2.29,2.69,6.53,6.53,0,0,1,.55,3.55,6.63,6.63,0,0,1-1.32,3.34,6.55,6.55,0,0,1-2.83,2.11,8.27,8.27,0,0,1-7.36-.82Zm5.74-2a3.27,3.27,0,0,0,1.4-1.16,4.24,4.24,0,0,0,.43-3.85,3.25,3.25,0,0,0-1.11-1.44,3.38,3.38,0,0,0-1.71-.66,3.52,3.52,0,0,0-1.83.26,3.38,3.38,0,0,0-1.39,1.16,4.27,4.27,0,0,0-.43,3.86,3.36,3.36,0,0,0,1.1,1.44,3.54,3.54,0,0,0,1.72.65A3.38,3.38,0,0,0,125.34,256Z"/><path class="cls-2" d="M142.47,247.34a4.41,4.41,0,0,1,2.79,4.17,4.68,4.68,0,0,1-.66,2.56,4.58,4.58,0,0,1-2,1.69,7.3,7.3,0,0,1-3.05.64l-2.26,0,.06,3.4-3.67.06-.23-13,5.93-.11A7.46,7.46,0,0,1,142.47,247.34ZM141,253a2,2,0,0,0-.05-2.81,2.54,2.54,0,0,0-1.72-.47l-2,0,.07,3.8,2,0A2.54,2.54,0,0,0,141,253Z"/><path class="cls-2" d="M155.72,245.9a4.55,4.55,0,0,1,2.21,1.38,4.65,4.65,0,0,1,1,2.43,4.56,4.56,0,0,1-.35,2.62,4.68,4.68,0,0,1-1.76,1.92,7.45,7.45,0,0,1-3,1l-2.24.31.46,3.37-3.64.5-1.78-12.86,5.88-.82A7.41,7.41,0,0,1,155.72,245.9Zm-.8,5.79a1.71,1.71,0,0,0,.38-1.47,1.78,1.78,0,0,0-.76-1.32,2.55,2.55,0,0,0-1.76-.26l-2,.28.52,3.77,2-.28A2.61,2.61,0,0,0,154.92,251.69Z"/><path class="cls-2" d="M160,244.45l3.58-.82,2.91,12.65-3.57.82Z"/><path class="cls-2" d="M177.75,239.22l4.12,12.32-2.86,1-7.64-4.75,2.2,6.57-3.41,1.14L166,243.15l2.87-1,7.64,4.74-2.2-6.56Z"/><path class="cls-2" d="M190.47,240.07l2.92-1.43,2.36,4.84A8.48,8.48,0,0,1,194,245.7a10.47,10.47,0,0,1-2.41,1.66,8,8,0,0,1-3.68.84,6.49,6.49,0,0,1-3.36-1,6.68,6.68,0,0,1-2.36-2.72,6.61,6.61,0,0,1-.7-3.55,6.34,6.34,0,0,1,1.26-3.29,8,8,0,0,1,3-2.41,8.24,8.24,0,0,1,3.2-.88,6.19,6.19,0,0,1,2.94.52l-1.17,2.93a4.12,4.12,0,0,0-3.47.08,3.5,3.5,0,0,0-1.7,5,4,4,0,0,0,1.26,1.52,3.32,3.32,0,0,0,1.74.61,3.87,3.87,0,0,0,1.93-.41,4.82,4.82,0,0,0,1.6-1.26Z"/><path class="cls-2" d="M205.89,238.59a7.2,7.2,0,0,1-2.56.56l-.6-2.9a8.12,8.12,0,0,0,4.23-1.46c1.14-.82,1.51-1.52,1.1-2.09a.88.88,0,0,0-1-.32,11.14,11.14,0,0,0-1.91.67,18.75,18.75,0,0,1-2.38.88,4.07,4.07,0,0,1-2.05,0,3.12,3.12,0,0,1-1.83-1.33,3.76,3.76,0,0,1-.72-2.12,4.35,4.35,0,0,1,.69-2.36,7.85,7.85,0,0,1,2.25-2.3,11.17,11.17,0,0,1,2.21-1.24,7.78,7.78,0,0,1,2.27-.59l.68,2.88a7.41,7.41,0,0,0-3.51,1.28,3.13,3.13,0,0,0-1.11,1.2,1,1,0,0,0,.09,1,.82.82,0,0,0,.93.29,10.65,10.65,0,0,0,1.87-.68,18.4,18.4,0,0,1,2.39-.88,4.26,4.26,0,0,1,2-.05,3,3,0,0,1,1.83,1.32,3.63,3.63,0,0,1,.71,2.1,4.42,4.42,0,0,1-.7,2.36,7.89,7.89,0,0,1-2.23,2.3A11.58,11.58,0,0,1,205.89,238.59Z"/><path class="cls-2" d="M215.7,229.69a6,6,0,0,1-4.2-2.22l-4.86-5.31,2.7-2.48,4.79,5.23c1.4,1.53,2.71,1.75,3.92.63s1.11-2.41-.29-3.95L213,216.36l2.67-2.44,4.86,5.31a6,6,0,0,1,1.83,4.38,7.21,7.21,0,0,1-6.63,6.08Z"/><path class="cls-2" d="M228.12,214.12l-1.29,1.53,2.63,2.23-2.38,2.8-9.9-8.4,3.84-4.53a7.38,7.38,0,0,1,2.43-2,4.73,4.73,0,0,1,6.42,2.76,4.51,4.51,0,0,1,0,2.5l4.92.51-2.54,3Zm-3.55-5.31a2.6,2.6,0,0,0-1.49,1l-1.32,1.56,2.9,2.46,1.32-1.56a2.55,2.55,0,0,0,.73-1.62,1.73,1.73,0,0,0-.69-1.34A1.82,1.82,0,0,0,224.57,208.81Z"/><path class="cls-2" d="M230.2,200.35l2.37,1.59,3.19-4.77,2.36,1.58-3.19,4.77,3.7,2.47-2,3-10.79-7.21,5.66-8.47,2.36,1.58Z"/><path class="cls-3" d="M238.32,149.7c-.54-.1-54.9-9.88-101.24-9.88S36.37,149.6,35.83,149.7l-.89-4.88c.55-.1,55.34-10,102.14-10s101.58,9.86,102.13,10Z"/><path class="cls-4" d="M139.4,63.71a13.37,13.37,0,1,1,13.37-13.36A13.37,13.37,0,0,1,139.4,63.71Zm0-21.77a8.41,8.41,0,1,0,8.41,8.41A8.41,8.41,0,0,0,139.4,41.94Z"/><rect class="cls-5" x="65.28" y="122.01" width="4.96" height="37.28"/><rect class="cls-5" x="54.54" y="129.82" width="4.96" height="35.01"/><path class="cls-6" d="M59.41,135.38l-4.8-1.2A21.08,21.08,0,0,1,66,121c9.66-4.32,18.53,1.8,21.45,3.81l-2.81,4.07c-4.08-2.81-10.24-6.22-16.62-3.36A16,16,0,0,0,59.41,135.38Z"/><path class="cls-6" d="M54.61,135.38A16,16,0,0,0,46,125.52c-6.39-2.86-12.54.55-16.62,3.36l-2.81-4.07c2.92-2,11.79-8.13,21.45-3.81a21,21,0,0,1,11.42,13.18Z"/><path class="cls-6" d="M65.3,117.1a24.74,24.74,0,0,1,7-16.92c7.8-8.09,17.83-6.11,21.13-5.46l-1,4.86c-4.59-.91-11.3-1.48-16.61,4a20.12,20.12,0,0,0-5.58,13.3Z"/><path class="cls-6" d="M70.23,116.86l-4.94-.19a20.19,20.19,0,0,0-5.58-13.3c-5.31-5.5-12-4.94-16.62-4l-1-4.86c3.29-.65,13.33-2.62,21.13,5.46A24.79,24.79,0,0,1,70.23,116.86Z"/><path class="cls-6" d="M70.16,122.55l-4.8-1.19a21.09,21.09,0,0,1,11.42-13.19c9.67-4.32,18.54,1.81,21.46,3.82l-2.81,4.07c-4.08-2.82-10.24-6.23-16.63-3.37A16,16,0,0,0,70.16,122.55Z"/><path class="cls-6" d="M65.36,122.55a16,16,0,0,0-8.64-9.86c-6.38-2.86-12.54.55-16.62,3.37L37.29,112c2.92-2,11.79-8.14,21.45-3.82a21,21,0,0,1,11.42,13.18l-4.8,1.19,2.4-.59Z"/><rect class="cls-6" x="71.08" y="168.27" width="4.95" height="6.32"/><rect class="cls-6" x="199.23" y="163.8" width="4.95" height="6.32"/><rect class="cls-6" x="82.92" y="167.04" width="4.95" height="13.42"/><rect class="cls-6" x="59.51" y="174.88" width="4.95" height="13.42"/><rect class="cls-6" x="194.27" y="150.53" width="4.95" height="13.42"/><rect class="cls-6" x="215.42" y="163.8" width="4.95" height="13.42"/><path class="cls-6" d="M155.68,111.1h-24v-2.47c0-4.76,3.81-11.81,12-11.81s12,7.05,12,11.81Zm-18.43-4.94h12.91a6.93,6.93,0,0,0-12.91,0Z"/><path class="cls-6" d="M211.88,124.07H187.93V121.6c0-4.77,3.81-11.82,12-11.82s12,7,12,11.82Zm-18.43-4.94h12.91a6.93,6.93,0,0,0-12.91,0Z"/><rect class="cls-3" x="187.92" y="124.08" width="23.96" height="4.96"/><rect class="cls-3" x="131.73" y="111.11" width="23.96" height="4.96"/><rect class="cls-7" x="108.56" y="104.86" width="14.26" height="4.96"/><rect class="cls-7" x="98.64" y="99.9" width="10.13" height="4.96"/><rect class="cls-7" x="119.13" y="124.23" width="22.91" height="4.96"/><rect class="cls-7" x="168.7" y="122.13" width="10.54" height="4.96"/><rect class="cls-7" x="158.98" y="99.29" width="10.54" height="4.96"/><rect class="cls-7" x="169.52" y="104.25" width="10.54" height="4.96"/><rect class="cls-7" x="59.38" y="81.57" width="34.44" height="4.96"/><rect class="cls-7" x="112.81" y="81.57" width="50.42" height="4.96"/><rect class="cls-7" x="192.47" y="81.57" width="19.01" height="4.96"/><path class="cls-6" d="M115.28,86.57H91.34V84.09c0-4.76,3.8-11.81,12-11.81s12,7,12,11.81ZM96.86,81.62h12.9a6.93,6.93,0,0,0-12.9,0Z"/><path class="cls-6" d="M196.52,94.61H159V92.13c0-5.79,4.72-18.49,18.77-18.49s18.76,12.7,18.76,18.49Zm-32.28-5h27c-1-4.61-4.89-11.08-13.51-11.08S165.28,85.05,164.24,89.66Z"/><rect class="cls-3" x="158.98" y="94.33" width="37.55" height="4.96"/><rect class="cls-3" x="91.33" y="86.57" width="23.96" height="4.96"/><rect class="cls-5" x="175.28" y="67.01" width="4.96" height="15.9"/><polygon class="cls-6" points="177.78 70.14 168.51 63.02 171.52 59.1 177.73 63.87 183.7 59.12 186.78 62.99 177.78 70.14"/><polygon class="cls-6" points="177.78 64.2 168.51 57.07 171.52 53.15 177.73 57.92 183.7 53.17 186.78 57.05 177.78 64.2"/><rect class="cls-5" x="104.77" y="68.39" width="4.96" height="13.42"/><polygon class="cls-6" points="107.27 71.53 98 64.41 101.01 60.48 107.22 65.25 113.19 60.51 116.27 64.38 107.27 71.53"/><polygon class="cls-6" points="107.27 65.58 98 58.46 101.01 54.53 107.22 59.3 113.19 54.56 116.27 58.43 107.27 65.58"/><path class="cls-8" d="M143,169.83c-11.08,0-27.38-1.8-34.41-4.71l-1.53-.63V154.7l1.53-.64c7-2.91,23.33-4.71,34.41-4.71,15.87,0,25.77,8,26.18,8.32l2.34,1.92-2.34,1.92C168.77,161.85,158.87,169.83,143,169.83Zm-31-8.74c7,2.26,21.33,3.78,31,3.78a40.86,40.86,0,0,0,20.11-5.28A40.86,40.86,0,0,0,143,154.31c-9.65,0-24,1.52-31,3.78Z"/><rect class="cls-4" x="130.58" y="81.57" width="16.57" height="4.96"/><path class="cls-3" d="M160.09,220.32a33.22,33.22,0,0,0-47,0L94,201.17a60.24,60.24,0,0,1,85.28,0Z"/><path class="cls-2" d="M113.24,199.17l3.53-1.5a2.75,2.75,0,0,1,2.14-.18,1.64,1.64,0,0,1,.91.92v0a1.73,1.73,0,0,1-.41,2,1.82,1.82,0,0,1,2.08,1.1v0c.5,1.18-.16,2.3-1.8,3l-3.54,1.51Zm4.22,1.44c.58-.24.82-.58.65-1v0c-.15-.37-.54-.46-1.11-.22l-1.24.52.52,1.21Zm1.38,2.49c.58-.25.82-.61.65-1v0c-.15-.37-.55-.49-1.19-.22l-1.46.62.54,1.27Z"/><path class="cls-2" d="M150.93,202.54l1.57-.88a3.85,3.85,0,0,0,1.95,1.69c.52.19.87.12,1-.18v0c.1-.29-.07-.54-.93-1.11-1.36-.9-2.35-1.75-1.81-3.19v0c.49-1.3,1.87-1.85,3.55-1.22a4.65,4.65,0,0,1,2.53,2l-1.48,1a3.71,3.71,0,0,0-1.7-1.42c-.47-.18-.78-.07-.87.18v0c-.12.32.07.55.95,1.14,1.48,1,2.29,1.84,1.8,3.15v0c-.54,1.43-2,1.86-3.69,1.22A5.27,5.27,0,0,1,150.93,202.54Z"/><path class="cls-2" d="M135.57,193.81h-2.24V192h6.55v1.81h-2.24v10h-2.07Z"/><rect class="cls-2" x="144.12" y="197.29" width="2.73" height="2.73" transform="translate(-78.61 96.62) rotate(-29.3)"/><rect class="cls-2" x="126.11" y="197.29" width="2.73" height="2.73" transform="translate(-108.16 212.48) rotate(-60.67)"/></g></g></svg>